HIERARCHY
ROOT SpineBase
{
  OFFSET 0.000000 0.000000 0.000000
  CHANNELS 6 Xposition Yposition Zposition Zrotation Xrotation Yrotation
  JOINT SpineMid
  {
    OFFSET 0.000000 29.017701 0.000000
    CHANNELS 3 Zrotation Xrotation Yrotation
    JOINT SpineShoulder
    {
      OFFSET -0.022675 21.503508 -0.564861
      CHANNELS 3 Zrotation Xrotation Yrotation
      JOINT Neck
      {
        OFFSET -0.022104 7.105527 -0.460002
        CHANNELS 3 Zrotation Xrotation Yrotation
        JOINT Head
        {
          OFFSET -1.207399 12.399934 -0.394661
          CHANNELS 3 Zrotation Xrotation Yrotation
          End Site
          {
            OFFSET 0 0 0
          }
        }
      }
      JOINT ShoulderLeft
      {
        OFFSET -16.749799 -2.251742 3.255705
        CHANNELS 3 Zrotation Xrotation Yrotation
        JOINT ElbowLeft
        {
          OFFSET -4.146362 -27.217587 2.520043
          CHANNELS 3 Zrotation Xrotation Yrotation
          JOINT WristLeft
          {
            OFFSET -3.005431 -20.176933 -2.099360
            CHANNELS 3 Zrotation Xrotation Yrotation
            JOINT HandLeft
            {
              OFFSET 1.026101 -6.602078 -1.365005
              CHANNELS 3 Zrotation Xrotation Yrotation
              JOINT HandTipLeft
              {
                OFFSET -0.032065 -7.175452 -0.337086
                CHANNELS 3 Zrotation Xrotation Yrotation
                End Site
                {
                  OFFSET 0 0 0
                }
              }
              JOINT ThumbLeft
              {
                OFFSET -2.452428 -1.912005 -0.695553
                CHANNELS 3 Zrotation Xrotation Yrotation
                End Site
                {
                  OFFSET 0 0 0
                }
              }
            }
          }
        }
      }
      JOINT ShoulderRight
      {
        OFFSET 15.843418 -2.535484 -4.404419
        CHANNELS 3 Zrotation Xrotation Yrotation
        JOINT ElbowRight
        {
          OFFSET 6.764198 -25.596742 -2.557704
          CHANNELS 3 Zrotation Xrotation Yrotation
          JOINT WristRight
          {
            OFFSET 0.920912 -20.829601 -4.481407
            CHANNELS 3 Zrotation Xrotation Yrotation
            JOINT HandRight
            {
              OFFSET -1.704878 -7.667375 -1.281372
              CHANNELS 3 Zrotation Xrotation Yrotation
              JOINT HandTipRight
              {
                OFFSET 0.211535 -6.861063 -1.269876
                CHANNELS 3 Zrotation Xrotation Yrotation
                End Site
                {
                  OFFSET 0 0 0
                }
              }
              JOINT ThumbRight
              {
                OFFSET -3.497450 0.651310 -1.363638
                CHANNELS 3 Zrotation Xrotation Yrotation
                End Site
                {
                  OFFSET 0 0 0
                }
              }
            }
          }
        }
      }
    }
  }
  JOINT HipLeft
  {
    OFFSET -7.482540 0.465458 -1.809174
    CHANNELS 3 Zrotation Xrotation Yrotation
    JOINT KneeLeft
    {
      OFFSET -7.019067 -29.368950 3.556677
      CHANNELS 3 Zrotation Xrotation Yrotation
      JOINT AnkleLeft
      {
        OFFSET -2.268196 -37.439541 8.082274
        CHANNELS 3 Zrotation Xrotation Yrotation
        JOINT FootLeft
        {
          OFFSET -3.145563 -6.803705 -6.554240
          CHANNELS 3 Zrotation Xrotation Yrotation
          End Site
          {
            OFFSET 0 0 0
          }
        }
      }
    }
  }
  JOINT HipRight
  {
    OFFSET 7.008544 0.638449 -4.347732
    CHANNELS 3 Zrotation Xrotation Yrotation
    JOINT KneeRight
    {
      OFFSET 3.100008 -25.354509 2.950456
      CHANNELS 3 Zrotation Xrotation Yrotation
      JOINT AnkleRight
      {
        OFFSET 2.003499 -37.480318 9.394493
        CHANNELS 3 Zrotation Xrotation Yrotation
        JOINT FootRight
        {
          OFFSET -2.075357 -8.172954 -5.038178
          CHANNELS 3 Zrotation Xrotation Yrotation
          End Site
          {
            OFFSET 0 0 0
          }
        }
      }
    }
  }
}
MOTION
Frames: 8
Frame Time: 0.033333
28.923786 73.055256 368.399161 -0.224334 0.331169 11.519555 0.153684 -0.369296 -11.518411 -0.000000 0.000000 0.000000 3.892256 -2.818545 -0.054557 0.000000 0.000000 0.000000 1.752655 1.834156 -0.145766 -0.148873 4.159237 -1.000489 -3.718068 -0.444866 2.156354 1.665722 0.953461 -1.224906 0.000000 0.000000 0.000000 0.000000 0.000000 0.000000 -0.128910 -1.056513 -0.267836 -2.924207 1.596487 1.015913 2.127913 -0.988387 -0.434985 -4.360818 4.327858 1.065209 0.000000 0.000000 0.000000 0.000000 0.000000 0.000000 0.153684 -0.369296 -11.518411 -0.000000 0.000000 0.000000 0.539030 24.365940 -9.987587 0.000000 0.000000 0.000000 3.541405 -0.886415 -11.063694 -6.385883 -1.626147 -1.286231 -1.102747 34.426646 -3.520081 0.000000 0.000000 0.000000
28.876954 73.043876 368.256064 -0.232450 0.372314 11.028450 0.156940 -0.409902 -11.027134 -0.000000 0.000000 0.000000 4.089261 -2.841678 -0.044886 0.000000 0.000000 0.000000 1.725507 1.738991 -0.131843 -0.068200 4.286768 -1.025324 -3.867921 1.524563 2.515472 2.168208 -2.164007 -1.498988 0.000000 0.000000 0.000000 0.000000 0.000000 0.000000 -0.205760 -1.020996 -0.251432 -2.958678 1.783499 1.038382 2.105830 -1.569112 -0.370297 -3.407179 4.570909 0.795223 0.000000 0.000000 0.000000 0.000000 0.000000 0.000000 0.156940 -0.409902 -11.027134 -0.000000 0.000000 0.000000 1.577169 20.244324 -9.636655 0.000000 0.000000 0.000000 3.488207 -0.741227 -10.569024 -6.121970 -1.913494 -1.268107 0.608974 23.996082 -2.923404 0.000000 0.000000 0.000000
28.803053 73.034115 368.069788 -0.264332 0.387976 10.543168 0.188885 -0.429790 -10.541565 -0.000000 0.000000 0.000000 4.212714 -2.712193 -0.030096 0.000000 0.000000 0.000000 1.668345 1.422103 -0.083162 0.053851 4.589380 -1.078229 -3.232985 2.199489 2.505936 2.745234 -2.837079 -1.424976 0.000000 0.000000 0.000000 0.000000 0.000000 0.000000 -0.239931 -0.940595 -0.226874 -3.160275 2.012949 1.087710 2.236638 -2.762427 -0.229869 -2.905025 3.818261 0.437991 0.000000 0.000000 0.000000 0.000000 0.000000 0.000000 0.188885 -0.429790 -10.541565 -0.651642 -0.650635 -0.104793 2.353492 20.694840 -9.637932 0.000000 0.000000 0.000000 3.631267 -0.395861 -10.043908 -6.051222 -2.716673 -1.343343 1.192373 20.836357 -2.696680 0.000000 0.000000 0.000000
28.763311 73.014364 367.948042 -0.290369 0.395701 10.257361 0.215273 -0.441079 -10.255529 -0.000000 0.000000 0.000000 4.315738 -2.604679 -0.018001 0.000000 0.000000 0.000000 1.671453 1.247159 -0.053599 0.346834 4.796195 -1.153350 -1.852197 0.513210 1.988054 2.298193 0.354708 -1.001244 0.000000 0.000000 0.000000 0.000000 0.000000 0.000000 -0.227481 -0.873278 -0.210050 -3.290631 1.774413 1.083478 2.927870 -4.760912 0.142426 -2.930043 5.567068 0.034459 0.000000 0.000000 0.000000 0.000000 0.000000 0.000000 0.215273 -0.441079 -10.255529 -0.766546 -0.760240 -0.124280 3.235390 18.442866 -9.570671 0.000000 0.000000 0.000000 3.664966 -0.466691 -9.762001 -5.881270 -3.087286 -1.309766 2.631101 16.785319 -2.925674 0.000000 0.000000 0.000000
28.743967 73.014380 367.879696 -0.314648 0.381653 10.147965 0.242490 -0.431115 -10.146005 -0.000000 0.000000 0.000000 4.297920 -2.434891 -0.008849 0.000000 0.000000 0.000000 1.701434 1.218503 -0.046335 0.420656 4.777306 -1.167661 0.433598 0.652592 1.615448 -0.040638 0.913531 -0.669336 0.000000 0.000000 0.000000 0.000000 0.000000 0.000000 -0.224791 -0.810953 -0.193672 -3.335543 1.402802 1.051219 3.435322 -5.403345 0.294485 -3.167392 7.140669 -0.049993 0.000000 0.000000 0.000000 0.000000 0.000000 0.000000 0.242490 -0.431115 -10.146005 -0.910358 -0.758276 -0.156314 4.708381 14.794399 -9.555365 0.000000 0.000000 0.000000 3.768935 -0.423491 -9.640449 -5.850762 -3.292160 -1.308693 2.250154 15.602720 -2.430717 0.000000 0.000000 0.000000
28.733183 73.015450 367.859157 -0.324799 0.327490 10.144901 0.262043 -0.379575 -10.143105 -0.000000 0.000000 0.000000 4.121716 -2.331695 -0.011865 0.000000 0.000000 0.000000 1.815353 1.067039 -0.011407 -0.056048 4.970814 -1.161983 3.685546 1.715935 1.254656 -4.044754 1.752761 -0.460968 0.000000 0.000000 0.000000 0.000000 0.000000 0.000000 -0.000000 0.000000 0.000000 -3.565888 0.220887 0.784819 3.676316 -5.430463 0.362337 -3.652725 7.754086 0.019966 0.000000 0.000000 0.000000 0.000000 0.000000 0.000000 0.262043 -0.379575 -10.143105 -1.096478 -1.009885 -0.184732 7.273146 10.414171 -10.186783 0.000000 0.000000 0.000000 4.094176 -0.195427 -9.585554 -6.204561 -3.364886 -1.397710 2.229205 14.639738 -2.156528 0.000000 0.000000 0.000000
28.718964 73.030349 367.825421 -0.314452 0.327338 10.242118 0.251243 -0.378030 -10.240391 -0.000000 0.000000 0.000000 3.788037 -2.331187 -0.029201 0.000000 0.000000 0.000000 1.872395 0.958720 0.011693 -0.453964 5.245879 -1.164279 6.056703 1.963732 0.972981 -6.771098 3.402443 -0.284943 0.000000 0.000000 0.000000 0.000000 0.000000 0.000000 -0.000000 0.000000 0.000000 -3.519415 -0.081045 0.752479 3.276489 -5.089909 0.411778 -3.280342 7.205769 -0.085476 0.000000 0.000000 0.000000 0.000000 0.000000 0.000000 0.251243 -0.378030 -10.240391 -1.166249 -1.546520 -0.173204 8.242560 6.830634 -9.469621 0.000000 0.000000 0.000000 4.611211 0.159013 -9.586276 -6.698191 -3.726471 -1.545810 1.944589 15.113681 -2.054618 0.000000 0.000000 0.000000
28.729968 73.036013 367.819035 -0.263356 0.325664 10.483940 0.199706 -0.368145 -10.482550 -0.000000 0.000000 0.000000 3.349779 -2.246728 -0.046284 0.000000 0.000000 0.000000 1.808270 1.012185 -0.002745 -0.735930 5.312860 -1.119201 8.335849 0.936301 0.601843 -8.599523 4.723873 0.170237 0.000000 0.000000 0.000000 0.000000 0.000000 0.000000 -0.000000 0.000000 0.000000 -3.445265 -0.494110 0.706339 3.514260 -4.835122 0.430899 -4.280451 7.454782 0.163200 0.000000 0.000000 0.000000 0.000000 0.000000 0.000000 0.199706 -0.368145 -10.482550 -1.266391 -1.995179 -0.173791 7.797413 4.993696 -7.945411 0.000000 0.000000 0.000000 4.848978 -0.065766 -9.801718 -7.168745 -3.298926 -1.578181 1.566824 14.907727 -1.661898 0.000000 0.000000 0.000000
